<?xml version="1.0" encoding="UTF-8"?> <svg xmlns="http://www.w3.org/2000/svg" id="Layer_1" data-name="Layer 1" viewBox="0 0 100 100"><defs><style>.cls-1{fill:#fbab22;}.cls-2{fill:#f15b27;}</style></defs><path class="cls-1" d="M19.43,46.27S19.16,51,26,60.15s14.71,9.71,25.26,10,16.93-3.33,21.23-8,8.47-11.52,8-15.55-6.66-.41-6.66.42-5.13,9.3-23.59,9.3S26.51,47.1,26.51,47.1s-.14-.83-1.8-.83Z"></path><path class="cls-2" d="M80.63,46.7c-2.34,0-4.5,0-6.66,0a1.69,1.69,0,0,1-.64-.27,34,34,0,0,0-11.81-3,13.7,13.7,0,0,0-5.26.64,19.83,19.83,0,0,1-12.42,0,17.56,17.56,0,0,0-7.72-.39,30.83,30.83,0,0,0-9.8,3,.86.86,0,0,1-.34.09H19.37a15.84,15.84,0,0,1,1-2.33,36.47,36.47,0,0,1,17-13.92,7.69,7.69,0,0,1,7,.56c1.75,1,3.41,2.07,5.08,3.17a.83.83,0,0,0,1.1,0c1.82-1.16,3.64-2.33,5.52-3.38a7.47,7.47,0,0,1,7-.15,40.32,40.32,0,0,1,10.21,6.47,32.26,32.26,0,0,1,6.57,7.7A12.49,12.49,0,0,1,80.63,46.7Z"></path></svg> 