<?xml version="1.0" encoding="UTF-8"?> <svg xmlns="http://www.w3.org/2000/svg" id="Layer_1" data-name="Layer 1" viewBox="0 0 100 100"><defs><style>.cls-1{fill:#f15b27;}.cls-2{fill:#fbab22;}.cls-3{fill:#fff;}</style></defs><path class="cls-1" d="M24.84,29.17a5,5,0,0,1,.71.87c.64,1.42,1.21,2.88,1.87,4.29a2.05,2.05,0,0,0,.88.87c1.29.61,2.62,1.11,3.9,1.71.39.18.9.5,1,.84.13.56-.52.67-.93.85-1.3.57-2.6,1.14-3.92,1.67a1.64,1.64,0,0,0-1,1c-.56,1.4-1.16,2.79-1.79,4.16-.13.28-.45.65-.69.65s-.56-.36-.69-.64c-.67-1.48-1.28-3-2-4.48a1.49,1.49,0,0,0-.69-.69c-1.4-.64-2.83-1.2-4.22-1.84a3.66,3.66,0,0,1-.84-.74,4.17,4.17,0,0,1,.86-.72c1.31-.6,2.64-1.17,4-1.7a1.72,1.72,0,0,0,1-1c.57-1.43,1.18-2.84,1.81-4.24A5,5,0,0,1,24.84,29.17Z"></path><path class="cls-1" d="M75.26,59.4a5,5,0,0,1,.56.76c.62,1.4,1.24,2.81,1.81,4.23a1.83,1.83,0,0,0,1.11,1.13c1.32.52,2.62,1.1,3.92,1.67.39.17.88.26.87.85s-.47.64-.84.8c-1.37.59-2.75,1.16-4.1,1.78a1.54,1.54,0,0,0-.69.69c-.66,1.44-1.25,2.91-1.91,4.34a1.25,1.25,0,0,1-.75.68c-.19,0-.54-.37-.67-.65q-.94-2.07-1.8-4.17a1.7,1.7,0,0,0-1-1c-1.4-.56-2.79-1.16-4.16-1.79-.28-.13-.63-.47-.63-.71s.36-.56.64-.69c1.46-.67,3-1.27,4.41-1.94a1.33,1.33,0,0,0,.64-.64c.67-1.46,1.28-2.94,1.94-4.41A5.17,5.17,0,0,1,75.26,59.4Z"></path><path class="cls-2" d="M24.23,58.82S37.1,71.58,37.7,71.94a21.16,21.16,0,0,0,13.59,5c8-.12,11-1,13.71-3.1s.11-2.26-1-3.81-1.19-4.29,2.39-5.6,3.57-.84,4.41-2.87,3-3.45,3-7.62-.36-15.86-.36-15.86,1-4.53-2.74-4.65-3.46,2.86-3.46,5.84.6,9.66-.83,10-2.75.12-2.75-2.39-.23-17.4-.23-17.4-.12-3-3.58-2.63-2.74,8.47-2.74,8.47.71,12-.48,13.47S53.43,50.6,53.43,48v-22s.12-2.62-3.34-2.86S47,30.81,47,30.81l.12,16.45s-.23,2.26-1.78,2.26-2-2.86-2-4.53-.36-15.73-.36-15.73a2.84,2.84,0,0,0-3-2.86S36.86,26,37,32s0,24.2,0,24.2,0,1.91-1.31,1.67S30.07,53,30.07,53s-2.39-2.38-5.61,1C24.46,53.94,22.56,56.56,24.23,58.82Z"></path><path class="cls-3" d="M46.61,57.35a3.45,3.45,0,0,1,.35.47c.39.88.77,1.76,1.13,2.65a1.15,1.15,0,0,0,.7.71c.82.32,1.63.68,2.45,1,.24.11.55.16.54.54s-.29.39-.53.49c-.85.37-1.71.73-2.56,1.12a.94.94,0,0,0-.43.43c-.41.9-.78,1.82-1.2,2.72a.79.79,0,0,1-.46.42c-.12,0-.35-.24-.43-.41-.39-.86-.77-1.73-1.12-2.61a1.07,1.07,0,0,0-.65-.63c-.88-.36-1.74-.73-2.6-1.13-.18-.08-.4-.29-.39-.44s.22-.35.39-.43c.92-.42,1.85-.8,2.76-1.21a.93.93,0,0,0,.41-.4c.41-.92.79-1.85,1.2-2.76A3.39,3.39,0,0,1,46.61,57.35Z"></path></svg> 