<?xml version="1.0" encoding="UTF-8"?> <svg xmlns="http://www.w3.org/2000/svg" id="Layer_1" data-name="Layer 1" viewBox="0 0 100 100"><defs><style>.cls-1{fill:#fbab22;}.cls-2{fill:#f15b27;}</style></defs><path class="cls-1" d="M50.47,67.78a5.08,5.08,0,0,1,3.06,4.32,5.16,5.16,0,0,1-7.45,5.08Q37.67,73,29.31,68.79a8.18,8.18,0,0,1-2.2-1.57,5,5,0,0,1-.62-5.95c2.68-4.08,5.35-8.18,8.22-12.13a14.22,14.22,0,0,1,11.27-6,95.3,95.3,0,0,1,10.69.09A14.78,14.78,0,0,1,67.6,49.35c2,2.54,3.79,5.22,5.68,7.83A5.84,5.84,0,0,1,73,63.91c-2.28,2.67-4.42,5.46-6.66,8.18a5.27,5.27,0,0,1-4.93,2.15s-3.41-.32-4-.87a48.53,48.53,0,0,1-2.69-4.74Z"></path><path class="cls-1" d="M50.06,39.57A8.65,8.65,0,1,1,58.71,31,8.61,8.61,0,0,1,50.06,39.57Z"></path><path class="cls-2" d="M56.46,73.92s-2.92.16-3-1.58,0-2.84-3.71-4.66l-7.9-3.87s-2.22-.87-2.22-2.53.16-4.9.16-4.9.32-3.24,4.19-2.69,2.92,4.9,2.92,4.9A4.81,4.81,0,0,0,49,62.94c2.45,1.81,6.87,3.79,7.66,3.79s1,.24.71,1.34.24,4.59,1.74,5.45S56.46,73.92,56.46,73.92Z"></path><path class="cls-2" d="M55.75,53.22a5.32,5.32,0,0,0-4.66,5.14c-.24,4.66,3.79,5.21,6.4,4.58s3.4-2.93,2.92-5.77S58.28,53,55.75,53.22Z"></path></svg> 