<?xml version="1.0" encoding="UTF-8"?> <svg xmlns="http://www.w3.org/2000/svg" id="Layer_1" data-name="Layer 1" viewBox="0 0 100 100"><defs><style>.cls-1{fill:#fbab22;}.cls-2{fill:#f15b27;}</style></defs><path class="cls-1" d="M21.26,47.18l-.14-13.33s.42-12.2,13.6-10.8S45,36.1,45.24,40.87,45.66,48,45,48,21.4,48,21.26,47.18Z"></path><path class="cls-1" d="M52.25,44.51s-6.87,10.8,1,21.32S74,70.32,74.55,69.61c0,0,2.67-1.68.7-3.64s-20-21-20-21S53.23,42.41,52.25,44.51Z"></path><path class="cls-1" d="M80.76,64.68s6.88-10.8-1-21.32S59,38.88,58.47,39.58c0,0-2.67,1.68-.71,3.64s20.06,21,20.06,21S79.78,66.78,80.76,64.68Z"></path><path class="cls-2" d="M21.29,47.19H45.47c0,.2.05.38.05.57,0,3.75,0,7.5,0,11.25a11.8,11.8,0,0,1-8.12,11.5c-7.89,2.57-15.46-2.68-16-10.21-.18-2.73-.09-5.48-.12-8.22C21.28,50.47,21.29,48.87,21.29,47.19Z"></path></svg> 