<?xml version="1.0" encoding="UTF-8"?> <svg xmlns="http://www.w3.org/2000/svg" id="Layer_1" data-name="Layer 1" viewBox="0 0 100 100"><defs><style>.cls-1{fill:#f15b27;}.cls-2{fill:#fbab22;}</style></defs><path class="cls-1" d="M55.94,46.08l-3.46,8.44,4.39,2.6c.8.48,1.62.92,2.38,1.45a5.09,5.09,0,0,1,2.06,5.95q-1.56,5.13-3.14,10.23a3.5,3.5,0,0,1-3.25,2.68A3.4,3.4,0,0,1,51.56,73c.94-2.92,1.83-5.85,2.74-8.78.05-.18.09-.36.15-.59L51.81,62c-2.1-1.26-4.18-2.56-6.31-3.77a6.94,6.94,0,0,1-2.83-9c.8-1.64,1.45-3.36,2.17-5,.55-1.31,1.11-2.62,1.67-4a3.77,3.77,0,0,0-4.38.21c-1.34,1-2.71,2-4,3.1a3.46,3.46,0,0,1-5-.57,3.39,3.39,0,0,1,.75-4.81c1.47-1.17,3-2.34,4.49-3.43a9.69,9.69,0,0,1,8.68-1.48c2.4.69,4.78,1.45,7.19,2.12a10.57,10.57,0,0,1,6.86,5.81c.79,1.6,1.59,3.2,2.35,4.81a.84.84,0,0,0,.92.57c1.34,0,2.67,0,4,0a3.42,3.42,0,1,1,0,6.83c-1.79,0-3.58,0-5.36,0a5.13,5.13,0,0,1-5-3.06C57.36,49,56.7,47.63,55.94,46.08Z"></path><path class="cls-1" d="M56.49,22.55a5.13,5.13,0,1,1-5.14,5.1A5.25,5.25,0,0,1,56.49,22.55Z"></path><path class="cls-2" d="M39.6,57.48s-.44,3.05-2.18,3-7.86-2-8.85.76-.54,4.48,2.08,5.35,9.72,1.2,10.59.55,2.95-1.86,3.27-3.83.44-1.63-.76-2.18-2.84-3.28-2.84-3.28S39.93,56.28,39.6,57.48Z"></path></svg> 