<?xml version="1.0" encoding="UTF-8"?> <svg xmlns="http://www.w3.org/2000/svg" id="Layer_1" data-name="Layer 1" viewBox="0 0 100 100"><defs><style>.cls-1{fill:#f15b27;}.cls-2{fill:#fbab22;}</style></defs><path class="cls-1" d="M61.35,17.31a4.89,4.89,0,0,1,.53.75c.61,1.37,1.18,2.75,1.8,4.11a1.63,1.63,0,0,0,.73.74c1.33.62,2.71,1.16,4,1.78a1,1,0,0,1,.55.66c0,.23-.3.55-.55.67-1.32.6-2.67,1.14-4,1.75a1.51,1.51,0,0,0-.68.69c-.62,1.34-1.16,2.71-1.78,4-.12.26-.43.59-.65.59s-.53-.34-.65-.59c-.62-1.34-1.16-2.71-1.78-4a1.51,1.51,0,0,0-.68-.69c-1.28-.59-2.6-1.11-3.88-1.7a4,4,0,0,1-.82-.72,3.83,3.83,0,0,1,.85-.77c1.28-.6,2.6-1.11,3.88-1.7a1.39,1.39,0,0,0,.64-.65c.62-1.36,1.18-2.74,1.8-4.11A4.62,4.62,0,0,1,61.35,17.31Z"></path><path class="cls-2" d="M49.85,38s-8.88-8.47-17.22.67,1.61,15.74,1.61,15.74S26.84,61,32.09,69.74s16.55,3.91,17.76.54c0,0,9.41,8.48,16.81.27s-.54-16.27-.54-16.27,9-7.4,1.75-16.28S49.85,38,49.85,38Z"></path><path class="cls-1" d="M42.55,54.16a7.14,7.14,0,1,1,7.11,7.16A7,7,0,0,1,42.55,54.16Z"></path><path class="cls-1" d="M50.64,33.81a4.1,4.1,0,0,1-.66.53c-1.06.47-2.12.93-3.18,1.36a1.24,1.24,0,0,0-.72.7c-.43,1.07-.88,2.13-1.36,3.18-.1.21-.34.48-.52.48s-.42-.27-.51-.48c-.5-1.1-.95-2.22-1.45-3.31a1.32,1.32,0,0,0-.6-.59c-1-.47-2.09-.89-3.12-1.37a2.67,2.67,0,0,1-.62-.55,2.91,2.91,0,0,1,.6-.52c1-.47,2.09-.88,3.12-1.36a1.45,1.45,0,0,0,.63-.62c.48-1,.89-2.09,1.36-3.12a2.51,2.51,0,0,1,.57-.61c.19.19.46.35.57.59.47,1,.91,2.05,1.33,3.08a1.19,1.19,0,0,0,.74.73c1.06.43,2.1.88,3.13,1.35A4.13,4.13,0,0,1,50.64,33.81Z"></path></svg> 