<?xml version="1.0" encoding="UTF-8"?>
<svg xmlns="http://www.w3.org/2000/svg" id="Layer_1" data-name="Layer 1" viewBox="0 0 140.37 140.36">
  <defs>
    <style>.cls-1{fill:#fff;}</style>
  </defs>
  <path class="cls-1" d="M98.67,52H91.39A2.94,2.94,0,0,1,88.45,49V41.73a7.1,7.1,0,0,0-7.1-7.1H59a7.1,7.1,0,0,0-7.1,7.1V49A2.94,2.94,0,0,1,49,52H41.7a7.1,7.1,0,0,0-7.1,7.1V81.38a7.1,7.1,0,0,0,7.1,7.1H49a2.94,2.94,0,0,1,2.94,2.94V98.7a7.1,7.1,0,0,0,7.1,7.1H81.35a7.1,7.1,0,0,0,7.1-7.1V91.42a2.94,2.94,0,0,1,2.94-2.94h7.28a7.1,7.1,0,0,0,7.1-7.1V59.05A7.1,7.1,0,0,0,98.67,52ZM84,5.73A19.42,19.42,0,0,0,70.18,0h0A19.41,19.41,0,0,0,56.34,5.73L5.73,56.33a19.6,19.6,0,0,0,0,27.7l50.61,50.6a19.59,19.59,0,0,0,27.69,0L134.64,84a19.6,19.6,0,0,0,0-27.7Zm41.82,69.51-50.61,50.6a7.33,7.33,0,0,1-10.11,0L14.52,75.24a7.16,7.16,0,0,1,0-10.12l50.61-50.6a7.16,7.16,0,0,1,10.11,0l50.61,50.6A7.16,7.16,0,0,1,125.85,75.24Z"></path>
</svg>
