<?xml version="1.0" encoding="UTF-8"?> <svg xmlns="http://www.w3.org/2000/svg" id="Layer_1" data-name="Layer 1" viewBox="0 0 649.23 140.36"><defs><style>.cls-1{fill:#fff;}</style></defs><path class="cls-1" d="M244.26,49.81h-3.84a4.31,4.31,0,0,0-4.3,4.3v.49c-3.56-3.17-9-6-17-6a25.91,25.91,0,0,0-19.91,8.94,30.12,30.12,0,0,0,0,38.92,26,26,0,0,0,19.91,8.93c8,0,13.45-2.84,17-6v.49a4.31,4.31,0,0,0,4.3,4.3h3.84a4.31,4.31,0,0,0,4.31-4.3V54.11A4.31,4.31,0,0,0,244.26,49.81ZM220,93.55a14.71,14.71,0,0,1-11.3-4.66A17.57,17.57,0,0,1,204.62,77a17.52,17.52,0,0,1,4.1-11.94A14.71,14.71,0,0,1,220,60.43c9.78,0,16.1,6.52,16.1,16.61S229.8,93.55,220,93.55ZM185.87,29.1a3.82,3.82,0,0,1-.4,0,7.55,7.55,0,0,0-.91-.06c-7,0-12.16,2.37-15.36,7-2.31,3.37-3.58,8-3.77,13.77h-3.91a4.26,4.26,0,0,0-4.2,4.3v3.34a4.26,4.26,0,0,0,4.2,4.3h3.89V99.88a4.31,4.31,0,0,0,4.3,4.3h3.83a4.26,4.26,0,0,0,4.21-4.3V61.75h7.61a4.31,4.31,0,0,0,4.31-4.3V54.11a4.31,4.31,0,0,0-4.31-4.3h-7.58c.26-6.82,1.68-9.88,7.79-9.88h.2a3.86,3.86,0,0,0,3.9-3.9V32.9A3.8,3.8,0,0,0,185.87,29.1ZM98.67,52H91.39A2.94,2.94,0,0,1,88.45,49V41.73a7.1,7.1,0,0,0-7.1-7.1H59a7.1,7.1,0,0,0-7.1,7.1V49A2.94,2.94,0,0,1,49,52H41.7a7.1,7.1,0,0,0-7.1,7.1V81.38a7.1,7.1,0,0,0,7.1,7.1H49a2.94,2.94,0,0,1,2.94,2.94V98.7a7.1,7.1,0,0,0,7.1,7.1H81.35a7.1,7.1,0,0,0,7.1-7.1V91.42a2.94,2.94,0,0,1,2.94-2.94h7.28a7.1,7.1,0,0,0,7.1-7.1V59.05A7.1,7.1,0,0,0,98.67,52ZM284.33,48.7a20.39,20.39,0,0,0-13.44,6.51v-1.1a4.25,4.25,0,0,0-4.2-4.3h-3.84a4.31,4.31,0,0,0-4.3,4.3V99.88a4.31,4.31,0,0,0,4.3,4.3h3.84a4.25,4.25,0,0,0,4.2-4.3V79.67c0-4.69.44-11.35,4.25-15,2.18-2.08,5.24-3,9.35-2.76h.08a3.49,3.49,0,0,0,3.5-3.39V52A3.27,3.27,0,0,0,287,49.58,3.56,3.56,0,0,0,284.33,48.7ZM84,5.73A19.42,19.42,0,0,0,70.18,0h0A19.41,19.41,0,0,0,56.34,5.73L5.73,56.33a19.6,19.6,0,0,0,0,27.7l50.61,50.6a19.59,19.59,0,0,0,27.69,0L134.64,84a19.6,19.6,0,0,0,0-27.7Zm41.82,69.51-50.61,50.6a7.33,7.33,0,0,1-10.11,0L14.52,75.24a7.16,7.16,0,0,1,0-10.12l50.61-50.6a7.16,7.16,0,0,1,10.11,0l50.61,50.6A7.16,7.16,0,0,1,125.85,75.24ZM561.68,49.81h-7.61V43.3a4.25,4.25,0,0,0-4.3-4.2H546a4.25,4.25,0,0,0-4.3,4.2v6.51h-4.49a4.3,4.3,0,0,0-4.3,4.3v3.34a4.3,4.3,0,0,0,4.3,4.3h4.49V85.83c0,12.51,6,18.85,17.73,18.85a27.28,27.28,0,0,0,3.07-.21,3.79,3.79,0,0,0,3.46-3.79V97a3.81,3.81,0,0,0-4-3.8h-1.36c-6,0-6.51-2.58-6.51-10.55V61.75h7.61a4.31,4.31,0,0,0,4.31-4.3V54.11A4.31,4.31,0,0,0,561.68,49.81Zm60.92,0h-3.84a4.31,4.31,0,0,0-4.3,4.3v.49c-3.56-3.17-9-6-17-6a25.91,25.91,0,0,0-19.91,8.94,30.12,30.12,0,0,0,0,38.92,26,26,0,0,0,19.91,8.93c8,0,13.45-2.84,17-6v.49a4.31,4.31,0,0,0,4.3,4.3h3.84a4.31,4.31,0,0,0,4.3-4.3V54.11A4.31,4.31,0,0,0,622.6,49.81ZM598.36,93.55a14.71,14.71,0,0,1-11.3-4.66A17.52,17.52,0,0,1,583,77a17.52,17.52,0,0,1,4.1-11.94,14.71,14.71,0,0,1,11.3-4.67c9.78,0,16.1,6.52,16.1,16.61S608.14,93.55,598.36,93.55ZM350.54,48.6a21.09,21.09,0,0,0-16.3,7.13,18.8,18.8,0,0,0-14.71-7.13,17.91,17.91,0,0,0-12.34,4.73,4.24,4.24,0,0,0-4.13-3.52h-3.84a4.31,4.31,0,0,0-4.3,4.3V99.88a4.31,4.31,0,0,0,4.3,4.3h3.84a4.26,4.26,0,0,0,4.2-4.3V71.39c0-7.53,5.05-11,9.74-11,8.43,0,9.33,7.66,9.33,11V99.88a4.31,4.31,0,0,0,4.31,4.3h3.84a4.26,4.26,0,0,0,4.2-4.3V71.39c0-7.53,5.05-11,9.74-11,8.42,0,9.33,7.66,9.33,11V99.88a4.31,4.31,0,0,0,4.31,4.3h3.84a4.26,4.26,0,0,0,4.2-4.3V68.76C370.1,57.45,361.51,48.6,350.54,48.6ZM503,48.6A28.45,28.45,0,1,0,531.44,77,28.14,28.14,0,0,0,503,48.6Zm0,44.95c-9.16,0-15.8-6.94-15.8-16.51s6.64-16.61,15.8-16.61,15.9,7,15.9,16.61S512.2,93.55,503,93.55ZM645,30.31h-3.84a4.31,4.31,0,0,0-4.3,4.3V99.88a4.31,4.31,0,0,0,4.3,4.3H645a4.2,4.2,0,0,0,4.2-4.3V34.61A4.2,4.2,0,0,0,645,30.31ZM429.24,49.81H425.4a4.31,4.31,0,0,0-4.3,4.3v.49c-3.56-3.17-9-6-17-6a25.9,25.9,0,0,0-19.9,8.94,30.12,30.12,0,0,0,0,38.92,25.93,25.93,0,0,0,19.9,8.93c8,0,13.46-2.84,17-6v.49a4.31,4.31,0,0,0,4.3,4.3h3.84a4.31,4.31,0,0,0,4.3-4.3V54.11A4.31,4.31,0,0,0,429.24,49.81ZM405,93.55a14.69,14.69,0,0,1-11.29-4.66A17.53,17.53,0,0,1,389.59,77,17.48,17.48,0,0,1,393.7,65.1,14.69,14.69,0,0,1,405,60.43c9.79,0,16.11,6.52,16.11,16.61S414.78,93.55,405,93.55Zm62.22-43.74h-7.62V43.3a4.25,4.25,0,0,0-4.3-4.2h-3.74a4.25,4.25,0,0,0-4.3,4.2v6.51h-4.49a4.31,4.31,0,0,0-4.3,4.3v3.34a4.31,4.31,0,0,0,4.3,4.3h4.49V85.83c0,12.51,6,18.85,17.74,18.85a27.45,27.45,0,0,0,3.07-.21,3.78,3.78,0,0,0,3.45-3.79V97a3.8,3.8,0,0,0-4.05-3.8H466.1c-6,0-6.51-2.58-6.51-10.55V61.75h7.62a4.31,4.31,0,0,0,4.3-4.3V54.11A4.31,4.31,0,0,0,467.21,49.81Z"></path></svg> 